<svg id="svg" version="1.1" xmlns="http://www.w3.org/2000/svg" xmlns:xlink="http://www.w3.org/1999/xlink" width="400" height="204.44888777805548" viewBox="0, 0, 400,204.44888777805548"><g id="svgg"><path id="path0" d="M188.621 16.287 C 188.917 16.324,189.442 16.324,189.788 16.288 C 190.134 16.252,189.892 16.222,189.250 16.221 C 188.608 16.221,188.325 16.250,188.621 16.287 M192.375 16.288 C 192.719 16.324,193.281 16.324,193.625 16.288 C 193.969 16.252,193.688 16.223,193.000 16.223 C 192.313 16.223,192.031 16.252,192.375 16.288 M206.208 16.782 C 206.369 16.823,206.631 16.823,206.792 16.782 C 206.952 16.740,206.821 16.705,206.500 16.705 C 206.179 16.705,206.048 16.740,206.208 16.782 M210.167 17.221 C 210.029 17.355,208.717 18.310,207.250 19.343 C 205.783 20.376,204.208 21.486,203.750 21.810 C 203.292 22.133,202.617 22.605,202.250 22.858 C 201.883 23.111,200.968 23.753,200.216 24.284 C 199.464 24.815,197.829 25.962,196.582 26.833 C 195.335 27.704,194.172 28.529,193.997 28.667 C 193.822 28.804,193.298 29.179,192.833 29.500 C 192.368 29.821,191.389 30.515,190.658 31.042 C 189.927 31.569,189.261 32.000,189.178 32.000 C 189.095 32.000,189.003 32.061,188.972 32.135 C 188.942 32.210,188.204 32.768,187.333 33.376 C 186.463 33.984,185.675 34.542,185.583 34.616 C 185.492 34.690,184.817 35.158,184.083 35.656 C 183.350 36.154,182.324 36.885,181.804 37.281 C 181.284 37.676,180.778 38.000,180.679 38.000 C 180.581 38.000,180.500 38.070,180.500 38.155 C 180.500 38.241,180.369 38.353,180.208 38.404 C 180.048 38.456,179.713 38.667,179.464 38.874 C 179.215 39.081,178.636 39.512,178.176 39.833 C 177.471 40.326,176.906 41.117,177.540 40.725 C 177.775 40.580,179.041 40.550,189.250 40.441 C 193.283 40.398,197.521 40.422,198.667 40.495 C 199.813 40.567,202.197 40.682,203.967 40.749 C 205.736 40.817,207.152 40.903,207.114 40.941 C 207.076 40.979,206.304 41.083,205.398 41.171 C 204.491 41.260,202.813 41.441,201.667 41.574 C 198.632 41.926,196.567 42.212,191.417 42.996 C 190.775 43.094,189.425 43.329,188.417 43.520 C 187.408 43.710,186.396 43.900,186.167 43.942 C 184.905 44.174,181.592 44.852,180.583 45.086 C 179.942 45.235,179.117 45.424,178.750 45.506 C 178.383 45.588,177.915 45.695,177.708 45.744 C 177.502 45.793,177.202 45.864,177.042 45.901 C 175.408 46.277,173.641 46.698,173.167 46.824 C 172.228 47.073,170.119 47.687,169.667 47.843 C 169.438 47.922,168.968 48.036,168.623 48.095 C 168.278 48.155,167.957 48.268,167.909 48.345 C 167.862 48.422,167.700 48.438,167.551 48.381 C 167.354 48.306,167.317 48.338,167.415 48.497 C 167.499 48.633,167.487 48.678,167.384 48.614 C 167.209 48.506,166.637 48.665,165.298 49.194 C 164.866 49.365,164.453 49.494,164.381 49.482 C 164.079 49.432,163.836 49.510,163.875 49.644 C 163.922 49.804,162.103 51.183,159.583 52.899 C 157.720 54.167,157.333 54.561,157.357 55.167 C 157.372 55.550,157.383 55.544,157.500 55.083 L 157.627 54.583 157.647 55.032 C 157.658 55.279,157.600 55.522,157.518 55.572 C 156.935 55.932,160.650 61.898,164.232 66.354 C 164.425 66.595,164.733 67.001,164.917 67.257 C 166.022 68.799,171.404 75.609,171.827 76.000 C 171.876 76.046,172.514 76.796,173.244 77.667 C 174.364 79.002,176.719 81.719,177.000 82.000 C 177.046 82.046,177.721 82.795,178.500 83.666 C 183.529 89.283,191.388 96.910,190.931 95.731 C 190.823 95.451,190.643 94.860,189.720 91.750 C 189.448 90.835,189.281 90.224,188.491 87.250 C 187.978 85.320,187.872 84.888,187.250 82.167 C 187.093 81.479,186.861 80.467,186.735 79.917 C 185.991 76.669,184.841 70.663,184.346 67.438 L 184.221 66.627 184.819 66.389 C 185.148 66.259,185.567 66.083,185.750 65.998 C 186.364 65.715,193.531 63.249,195.958 62.485 C 196.806 62.218,198.231 61.768,199.125 61.484 C 200.019 61.201,201.125 60.869,201.583 60.748 C 202.042 60.627,202.829 60.406,203.333 60.258 C 203.838 60.110,204.963 59.797,205.833 59.564 C 206.704 59.330,207.979 58.988,208.667 58.803 C 209.842 58.487,210.453 58.333,212.792 57.769 C 215.485 57.118,219.688 56.241,222.083 55.829 C 224.261 55.455,225.110 54.879,226.420 52.890 C 227.549 51.176,232.858 42.371,233.740 40.750 C 234.089 40.108,234.432 39.508,234.502 39.417 C 234.572 39.325,235.248 38.125,236.004 36.750 C 236.761 35.375,237.561 33.922,237.782 33.520 C 238.003 33.119,238.911 31.394,239.800 29.687 L 241.417 26.583 241.414 25.250 C 241.409 22.922,240.237 21.484,237.833 20.856 C 236.528 20.515,231.579 19.619,228.083 19.090 C 227.258 18.966,226.058 18.781,225.417 18.679 C 223.361 18.354,222.106 18.178,221.167 18.082 C 220.662 18.031,219.725 17.918,219.083 17.833 C 218.442 17.747,217.429 17.635,216.833 17.585 C 216.237 17.535,215.349 17.448,214.858 17.392 C 214.368 17.337,213.468 17.264,212.858 17.231 C 212.249 17.197,211.450 17.127,211.083 17.074 C 210.618 17.007,210.341 17.051,210.167 17.221 " stroke="none" fill="#1bc49c" fill-rule="evenodd"></path><path id="path1" d="M183.417 16.368 C 178.854 16.531,173.172 16.811,172.667 16.898 C 172.438 16.938,171.425 17.015,170.417 17.071 C 169.408 17.126,167.946 17.244,167.167 17.332 C 166.387 17.421,164.925 17.576,163.917 17.677 C 158.520 18.220,151.210 19.248,146.833 20.080 C 146.054 20.228,144.994 20.421,144.477 20.508 C 141.659 20.987,140.063 22.830,140.197 25.455 C 140.276 26.998,141.333 29.263,146.129 38.167 C 146.500 38.854,147.053 39.892,147.360 40.474 C 148.947 43.487,150.508 44.059,155.000 43.273 C 156.909 42.939,159.438 42.557,161.250 42.328 C 161.983 42.235,162.808 42.125,163.083 42.084 C 163.639 41.999,165.961 41.713,167.250 41.571 C 167.708 41.520,168.271 41.451,168.500 41.418 C 168.729 41.385,169.629 41.305,170.500 41.241 C 171.371 41.176,172.421 41.091,172.833 41.051 C 173.246 41.012,174.296 40.940,175.167 40.891 C 176.037 40.843,176.858 40.716,176.990 40.610 C 177.176 40.460,177.202 40.464,177.105 40.625 C 177.037 40.740,177.060 40.833,177.157 40.833 C 177.254 40.833,177.335 40.740,177.337 40.625 C 177.339 40.510,177.717 40.154,178.176 39.833 C 178.636 39.512,179.215 39.081,179.464 38.874 C 179.713 38.667,180.048 38.456,180.208 38.404 C 180.369 38.353,180.500 38.241,180.500 38.155 C 180.500 38.070,180.581 38.000,180.679 38.000 C 180.778 38.000,181.284 37.676,181.804 37.281 C 182.324 36.885,183.350 36.154,184.083 35.656 C 184.817 35.158,185.492 34.690,185.583 34.616 C 185.675 34.542,186.463 33.984,187.333 33.376 C 188.204 32.768,188.942 32.210,188.972 32.135 C 189.003 32.061,189.095 32.000,189.178 32.000 C 189.261 32.000,189.927 31.569,190.658 31.042 C 191.389 30.515,192.368 29.821,192.833 29.500 C 193.298 29.179,193.822 28.804,193.997 28.667 C 194.172 28.529,195.335 27.704,196.582 26.833 C 197.829 25.962,199.464 24.815,200.216 24.284 C 200.968 23.753,201.883 23.111,202.250 22.858 C 202.617 22.605,203.292 22.133,203.750 21.810 C 204.208 21.486,205.783 20.376,207.250 19.343 C 210.416 17.113,210.642 16.916,209.881 17.057 C 209.587 17.111,209.301 17.083,209.247 16.995 C 209.192 16.906,208.997 16.833,208.814 16.833 C 208.591 16.833,208.522 16.903,208.605 17.042 C 208.683 17.171,208.618 17.158,208.435 17.010 C 208.232 16.845,207.656 16.760,206.611 16.739 C 205.771 16.722,204.521 16.664,203.833 16.610 C 199.814 16.292,189.120 16.165,183.417 16.368 M164.750 49.256 C 164.333 49.457,164.319 49.480,164.667 49.395 C 165.139 49.279,165.670 49.009,165.417 49.013 C 165.325 49.014,165.025 49.123,164.750 49.256 M163.457 49.687 C 163.297 49.777,163.167 49.806,163.167 49.752 C 163.167 49.699,162.998 49.749,162.792 49.863 C 162.374 50.095,162.304 50.116,161.845 50.146 C 161.668 50.157,161.425 50.260,161.304 50.375 C 161.182 50.490,160.901 50.609,160.679 50.640 C 159.949 50.744,158.398 52.034,158.604 52.367 C 158.648 52.438,158.555 52.447,158.398 52.386 C 158.218 52.317,158.152 52.342,158.221 52.453 C 158.281 52.550,158.219 52.721,158.083 52.834 C 157.664 53.182,157.153 55.798,157.552 55.551 C 157.627 55.505,157.676 55.268,157.660 55.025 C 157.644 54.782,157.639 54.500,157.649 54.397 C 157.659 54.295,158.473 53.661,159.458 52.989 C 161.716 51.449,163.733 49.959,163.806 49.778 C 163.897 49.549,163.765 49.515,163.457 49.687 " stroke="none" fill="#26dfa4" fill-rule="evenodd"></path><path id="path2" d="M65.039 109.792 C 65.179 111.656,66.184 113.329,67.879 114.519 C 69.656 115.765,70.100 115.831,76.791 115.832 L 82.665 115.833 82.707 131.542 L 82.750 147.250 87.708 147.294 L 92.667 147.338 92.667 131.586 L 92.667 115.833 101.583 115.833 L 110.500 115.833 110.498 115.208 C 110.490 112.290,107.802 109.332,104.696 108.824 C 104.152 108.734,95.511 108.668,84.353 108.668 L 64.955 108.667 65.039 109.792 M127.834 124.125 C 127.835 133.141,127.902 139.988,127.994 140.554 C 128.290 142.362,129.616 144.521,131.047 145.524 C 131.485 145.832,131.948 146.177,132.077 146.292 C 132.205 146.406,132.371 146.500,132.446 146.501 C 132.522 146.502,132.784 146.607,133.029 146.734 C 134.108 147.298,135.097 147.333,149.675 147.333 L 164.167 147.333 164.164 146.625 C 164.157 144.368,162.173 141.438,159.978 140.440 C 158.287 139.672,158.233 139.669,147.542 139.668 L 137.333 139.667 137.333 135.333 L 137.333 131.000 143.018 131.000 C 149.266 131.000,149.959 130.919,151.616 129.992 C 153.607 128.878,155.167 126.455,155.167 124.474 L 155.167 123.833 146.250 123.833 L 137.333 123.833 137.333 119.833 L 137.333 115.833 148.750 115.833 C 155.029 115.833,160.167 115.798,160.167 115.756 C 160.167 115.642,159.403 114.271,158.479 112.727 C 158.032 111.981,157.667 111.327,157.667 111.274 C 157.667 111.222,157.324 110.613,156.904 109.923 L 156.142 108.667 141.988 108.667 L 127.833 108.667 127.834 124.125 M158.333 108.747 C 158.333 108.792,158.546 109.186,158.805 109.622 C 159.065 110.059,159.900 111.504,160.660 112.833 C 161.421 114.162,162.721 116.412,163.548 117.833 C 165.893 121.857,166.758 123.355,167.205 124.167 C 167.432 124.579,168.291 126.079,169.113 127.500 C 173.713 135.449,174.030 135.999,174.852 137.458 C 175.192 138.061,175.761 139.039,176.380 140.083 C 176.542 140.358,176.720 140.715,176.774 140.875 C 176.828 141.035,176.938 141.167,177.019 141.167 C 177.100 141.167,177.167 141.246,177.167 141.343 C 177.167 141.439,177.598 142.244,178.125 143.132 C 178.652 144.019,179.112 144.821,179.148 144.914 C 179.184 145.007,179.511 145.590,179.875 146.208 L 180.538 147.333 184.314 147.333 L 188.090 147.333 188.503 146.547 C 188.731 146.115,189.348 145.036,189.875 144.150 C 190.402 143.263,190.833 142.455,190.833 142.352 C 190.833 142.250,190.900 142.167,190.981 142.167 C 191.062 142.167,191.171 142.035,191.223 141.875 C 191.276 141.715,191.519 141.246,191.763 140.833 C 192.008 140.421,192.922 138.846,193.795 137.333 C 194.669 135.821,195.564 134.296,195.785 133.946 C 196.006 133.595,196.238 133.182,196.302 133.028 C 196.365 132.873,196.848 132.021,197.375 131.133 C 197.902 130.245,198.333 129.439,198.333 129.343 C 198.333 129.246,198.408 129.167,198.500 129.167 C 198.592 129.167,198.667 129.095,198.667 129.007 C 198.667 128.919,199.267 127.828,200.000 126.583 C 200.733 125.339,201.333 124.293,201.333 124.259 C 201.333 124.225,201.783 123.440,202.333 122.514 C 202.883 121.587,203.333 120.755,203.333 120.665 C 203.333 120.574,203.408 120.500,203.500 120.500 C 203.592 120.500,203.667 120.416,203.667 120.314 C 203.667 120.212,204.117 119.384,204.667 118.473 C 205.217 117.563,205.667 116.787,205.667 116.750 C 205.667 116.688,207.216 114.003,209.352 110.362 C 210.460 108.474,210.634 108.603,207.125 108.711 C 201.987 108.869,198.032 110.854,196.417 114.083 C 196.233 114.450,196.027 114.775,195.958 114.806 C 195.890 114.836,195.833 114.930,195.833 115.013 C 195.833 115.097,195.447 115.860,194.974 116.708 C 194.502 117.556,193.784 118.880,193.379 119.651 C 192.975 120.421,192.311 121.638,191.905 122.353 C 191.499 123.069,191.167 123.686,191.167 123.723 C 191.167 123.760,190.768 124.494,190.281 125.354 C 189.794 126.214,189.016 127.630,188.552 128.501 C 188.088 129.371,187.520 130.421,187.291 130.833 C 185.673 133.745,185.167 134.678,185.167 134.754 C 185.167 134.801,184.973 135.147,184.737 135.521 C 184.237 136.313,184.286 136.349,183.245 134.417 C 182.899 133.775,182.390 132.837,182.114 132.333 C 181.838 131.829,181.499 131.192,181.361 130.917 C 181.223 130.642,181.066 130.379,181.013 130.333 C 180.960 130.287,180.684 129.800,180.399 129.250 C 180.115 128.700,179.596 127.725,179.248 127.083 C 178.355 125.441,177.993 124.772,177.174 123.250 C 176.780 122.517,176.290 121.617,176.085 121.250 C 175.184 119.638,174.582 118.527,174.100 117.590 C 173.816 117.036,173.527 116.558,173.458 116.528 C 173.390 116.497,173.333 116.406,173.333 116.325 C 173.333 116.197,171.256 112.296,170.320 110.667 C 170.136 110.346,169.824 109.765,169.626 109.375 L 169.267 108.667 163.800 108.667 C 160.793 108.667,158.333 108.703,158.333 108.747 M211.852 109.821 C 211.475 110.456,211.167 111.011,211.167 111.055 C 211.167 111.099,210.717 111.894,210.167 112.820 C 209.617 113.746,209.167 114.572,209.167 114.655 C 209.167 114.738,209.073 114.837,208.958 114.875 C 208.522 115.020,208.578 140.185,209.017 141.500 C 209.982 144.388,212.444 146.650,215.187 147.171 C 215.704 147.269,221.809 147.333,230.544 147.333 L 245.043 147.333 244.929 146.324 C 244.604 143.451,242.512 140.905,239.742 140.010 C 238.717 139.679,238.323 139.667,228.423 139.667 L 218.167 139.667 218.167 135.333 L 218.167 131.000 223.740 131.000 C 229.566 131.000,230.649 130.897,232.009 130.214 C 234.213 129.108,235.627 127.130,235.926 124.734 L 236.038 123.833 227.103 123.833 L 218.167 123.833 218.167 119.833 L 218.167 115.833 228.641 115.833 C 239.985 115.833,239.686 115.855,241.504 114.914 C 243.134 114.072,244.743 111.634,244.940 109.708 L 245.047 108.667 228.793 108.667 L 212.538 108.667 211.852 109.821 M247.167 127.993 L 247.167 147.333 247.803 147.333 C 251.354 147.333,254.698 144.835,256.166 141.083 C 256.634 139.888,256.667 139.006,256.667 127.601 L 256.667 115.823 266.625 115.870 C 277.968 115.923,277.355 115.847,278.915 117.406 C 281.703 120.194,280.434 124.919,276.604 126.018 C 276.334 126.095,273.782 126.164,270.932 126.170 C 264.945 126.184,264.396 126.268,262.634 127.438 C 260.880 128.604,259.850 130.277,259.593 132.375 L 259.476 133.333 262.115 133.333 L 264.754 133.333 265.919 134.437 C 266.559 135.044,267.983 136.375,269.082 137.395 C 270.181 138.415,271.277 139.438,271.517 139.667 C 272.106 140.228,274.946 142.844,275.669 143.491 C 276.403 144.147,278.309 145.436,278.850 145.641 C 279.076 145.727,279.596 145.951,280.005 146.138 C 282.216 147.148,282.712 147.218,288.208 147.294 C 291.858 147.345,293.333 147.313,293.333 147.183 C 293.333 147.082,293.276 147.000,293.207 147.000 C 293.137 147.000,292.893 146.831,292.663 146.625 C 292.434 146.419,291.873 145.950,291.415 145.584 C 290.958 145.217,290.433 144.792,290.250 144.639 C 289.835 144.293,288.627 143.309,287.761 142.612 C 287.400 142.321,286.838 141.854,286.511 141.574 C 286.184 141.294,285.692 140.894,285.417 140.685 C 285.142 140.477,284.654 140.069,284.332 139.778 C 283.837 139.331,283.074 138.703,281.833 137.719 C 281.620 137.550,279.685 135.943,278.577 135.015 C 278.390 134.858,277.839 134.416,277.353 134.032 L 276.470 133.333 277.443 133.330 C 281.594 133.316,285.514 131.370,287.607 128.284 C 287.869 127.899,288.129 127.546,288.187 127.500 C 288.383 127.344,289.292 125.253,289.600 124.250 C 290.445 121.500,289.616 116.108,288.085 114.395 C 287.992 114.292,287.806 114.030,287.671 113.812 C 287.235 113.112,284.911 110.927,284.237 110.583 C 283.878 110.400,283.558 110.194,283.528 110.125 C 283.497 110.056,283.399 110.000,283.310 110.000 C 283.221 110.000,282.820 109.850,282.418 109.667 C 280.351 108.726,281.126 108.765,263.458 108.707 L 247.167 108.653 247.167 127.993 M286.004 108.792 C 286.007 108.860,286.503 109.442,287.108 110.083 C 287.713 110.725,289.078 112.188,290.141 113.333 C 291.203 114.479,292.300 115.646,292.578 115.927 C 292.856 116.207,293.487 116.882,293.981 117.427 C 294.475 117.971,295.413 118.980,296.065 119.670 C 299.357 123.150,303.865 127.958,305.219 129.434 L 306.000 130.285 306.000 138.833 L 306.000 147.382 307.125 147.286 C 310.128 147.031,313.039 144.966,314.225 142.250 C 314.385 141.883,314.586 141.455,314.672 141.298 C 314.977 140.740,315.164 138.027,315.169 134.083 L 315.173 130.083 316.605 128.583 C 317.393 127.758,318.685 126.381,319.477 125.523 C 320.269 124.665,321.254 123.609,321.667 123.177 C 322.759 122.032,326.541 118.001,327.070 117.417 C 327.320 117.142,327.987 116.426,328.554 115.825 C 329.712 114.597,333.472 110.592,334.395 109.602 C 335.274 108.659,335.295 108.666,331.708 108.670 C 324.668 108.677,323.598 109.191,318.167 115.173 C 317.387 116.032,316.563 116.930,316.333 117.170 C 316.104 117.411,315.118 118.464,314.143 119.512 C 313.167 120.560,311.949 121.867,311.436 122.417 L 310.503 123.417 309.904 122.750 C 309.575 122.383,308.565 121.293,307.661 120.327 C 306.756 119.360,305.881 118.414,305.716 118.224 C 305.459 117.927,304.566 116.969,300.941 113.102 C 300.588 112.725,299.846 111.929,299.293 111.333 C 298.739 110.737,297.952 109.894,297.544 109.458 L 296.801 108.667 291.401 108.667 C 288.430 108.667,286.002 108.723,286.004 108.792 M101.333 124.135 C 101.333 127.138,103.699 129.987,106.819 130.744 C 107.737 130.966,108.856 131.002,113.667 130.963 L 119.417 130.917 119.441 130.500 C 119.567 128.317,117.773 125.638,115.412 124.485 L 114.250 123.917 107.792 123.866 C 101.519 123.817,101.333 123.825,101.333 124.135 M167.892 152.989 C 159.222 154.376,154.810 166.224,160.036 174.083 C 167.093 184.697,182.667 179.307,182.667 166.250 C 182.667 163.275,181.574 159.326,180.522 158.500 C 180.464 158.454,180.195 158.092,179.926 157.695 C 177.510 154.135,172.637 152.229,167.892 152.989 M135.266 153.290 C 135.198 153.358,134.459 153.451,133.623 153.498 L 132.104 153.583 132.049 165.417 C 132.019 171.925,131.977 177.625,131.956 178.083 L 131.917 178.917 134.319 178.955 L 136.721 178.993 136.617 170.080 C 136.559 165.178,136.566 161.167,136.631 161.167 C 136.772 161.167,137.038 161.499,139.435 164.667 C 140.441 165.996,141.387 167.233,141.538 167.417 C 141.689 167.600,142.374 168.500,143.061 169.417 C 143.748 170.333,145.296 172.396,146.501 174.000 C 147.705 175.604,148.854 177.138,149.054 177.408 C 149.253 177.678,149.628 178.143,149.885 178.441 L 150.354 178.984 152.436 178.982 C 153.899 178.981,154.536 178.921,154.579 178.782 C 154.612 178.673,154.678 172.938,154.724 166.037 L 154.809 153.491 152.363 153.537 L 149.917 153.583 149.940 155.583 C 149.952 156.683,150.016 160.696,150.082 164.500 L 150.201 171.417 149.786 170.986 C 149.490 170.679,140.463 158.714,137.537 154.750 C 136.403 153.214,135.757 152.799,135.266 153.290 M184.555 153.363 C 184.404 153.557,184.162 154.825,183.882 156.899 L 183.794 157.548 187.314 157.464 L 190.833 157.379 190.846 158.315 C 190.853 158.829,190.884 159.378,190.914 159.535 C 191.062 160.307,191.064 168.101,190.917 172.083 C 190.825 174.558,190.750 177.108,190.750 177.750 L 190.750 178.917 193.297 178.955 L 195.844 178.993 195.730 169.122 C 195.667 163.692,195.671 158.813,195.738 158.279 L 195.860 157.309 199.139 157.363 L 202.417 157.417 202.375 155.347 C 202.326 152.862,202.516 153.074,200.543 153.305 C 196.939 153.726,186.723 153.681,185.072 153.236 C 184.881 153.185,184.650 153.242,184.555 153.363 M228.097 153.292 C 228.029 153.360,224.697 153.454,220.695 153.500 L 213.417 153.583 213.448 156.083 C 213.494 159.632,213.497 173.259,213.453 176.333 L 213.417 178.917 214.633 178.938 C 215.302 178.949,216.381 179.011,217.032 179.075 C 218.595 179.229,218.511 179.568,218.387 173.610 C 218.296 169.279,218.316 168.447,218.514 168.321 C 218.644 168.239,221.234 168.171,224.269 168.169 L 229.788 168.167 229.769 165.958 L 229.750 163.750 229.000 163.691 C 228.588 163.659,226.084 163.723,223.437 163.833 C 219.410 164.002,218.601 163.998,218.481 163.809 C 218.403 163.685,218.337 162.222,218.336 160.557 L 218.333 157.531 219.904 157.413 C 220.767 157.349,222.249 157.339,223.195 157.392 C 227.924 157.655,230.789 157.707,230.898 157.529 C 231.050 157.285,230.660 153.640,230.454 153.375 C 230.278 153.148,228.310 153.078,228.097 153.292 M204.626 153.708 C 204.584 153.823,204.627 156.640,204.722 159.968 C 204.842 164.158,204.841 167.950,204.721 172.301 C 204.625 175.756,204.580 178.674,204.622 178.785 C 204.677 178.933,205.353 178.978,207.140 178.952 L 209.583 178.917 209.578 175.167 C 209.575 173.104,209.538 169.729,209.495 167.667 C 209.452 165.604,209.485 161.573,209.568 158.708 L 209.720 153.500 207.211 153.500 C 205.356 153.500,204.682 153.554,204.626 153.708 M232.000 157.156 C 232.000 159.294,232.072 161.002,232.174 161.270 C 232.319 161.652,233.583 163.672,234.039 164.250 C 234.111 164.342,234.893 165.389,235.778 166.577 C 236.662 167.765,237.449 168.815,237.525 168.910 C 237.602 169.005,237.928 169.421,238.250 169.833 C 238.572 170.246,238.912 170.676,239.005 170.789 C 239.860 171.826,239.889 172.002,239.764 175.442 C 239.617 179.469,239.420 179.167,242.198 179.167 C 245.228 179.167,245.000 179.468,244.882 175.618 C 244.766 171.840,244.542 172.474,247.236 168.943 C 250.228 165.021,251.086 163.806,252.003 162.193 L 252.833 160.733 252.833 157.637 C 252.833 155.935,252.786 154.307,252.729 154.021 L 252.625 153.500 250.125 153.500 L 247.624 153.500 247.746 156.828 C 247.866 160.113,247.862 160.164,247.483 160.786 C 246.737 162.011,244.023 165.545,242.733 166.973 L 242.380 167.362 240.732 165.386 C 239.825 164.299,238.896 163.161,238.667 162.857 C 238.438 162.553,238.175 162.215,238.083 162.106 C 236.836 160.621,236.771 160.332,236.881 156.754 L 236.981 153.500 234.490 153.500 L 232.000 153.500 232.000 157.156 M172.000 157.512 C 178.828 159.065,180.286 169.470,174.299 173.917 C 172.168 175.499,168.367 175.520,166.250 173.961 C 158.696 168.395,163.200 155.511,172.000 157.512 " stroke="none" fill="#242424" fill-rule="evenodd"></path><path id="path3" d="" stroke="none" fill="#205468" fill-rule="evenodd"></path><path id="path4" d="" stroke="none" fill="#205824" fill-rule="evenodd"></path></g></svg>