<svg id="svg" version="1.1" xmlns="http://www.w3.org/2000/svg" xmlns:xlink="http://www.w3.org/1999/xlink" width="400" height="112.90057518488085" viewBox="0, 0, 400,112.90057518488085"><g id="svgg"><path id="path0" d="M79.295 10.454 C 79.634 10.496,79.797 10.590,79.727 10.703 C 79.660 10.813,79.693 10.837,79.810 10.764 C 80.141 10.560,79.842 10.332,79.282 10.360 L 78.750 10.387 79.295 10.454 M81.167 10.697 C 81.167 10.766,81.073 10.788,80.958 10.746 C 80.787 10.682,79.370 11.611,78.549 12.325 C 78.438 12.421,78.299 12.500,78.239 12.500 C 78.180 12.500,77.896 12.689,77.607 12.919 C 77.034 13.378,76.867 13.499,76.464 13.750 C 75.919 14.089,73.567 15.733,73.083 16.113 C 72.209 16.799,71.674 17.146,71.292 17.274 C 71.131 17.328,71.000 17.437,71.000 17.515 C 71.000 17.594,70.756 17.783,70.458 17.935 C 70.160 18.087,69.857 18.314,69.783 18.439 C 69.710 18.564,69.576 18.667,69.485 18.667 C 69.394 18.667,69.229 18.743,69.118 18.837 C 68.251 19.569,67.900 19.833,67.794 19.833 C 67.634 19.833,65.266 21.505,64.435 22.204 C 64.078 22.504,63.698 22.787,63.591 22.833 C 63.484 22.879,63.289 23.009,63.157 23.122 C 62.385 23.785,61.846 24.167,61.684 24.167 C 61.583 24.167,61.500 24.223,61.500 24.292 C 61.500 24.360,61.143 24.638,60.708 24.909 C 60.273 25.181,59.879 25.447,59.833 25.501 C 59.788 25.555,59.487 25.780,59.167 26.000 C 58.846 26.220,58.546 26.444,58.500 26.497 C 58.454 26.551,58.004 26.852,57.500 27.168 C 56.996 27.484,55.833 28.275,54.917 28.927 C 54.000 29.579,53.119 30.159,52.958 30.217 C 52.798 30.275,52.667 30.400,52.667 30.495 C 52.667 30.589,52.552 30.667,52.411 30.667 C 52.271 30.667,52.113 30.779,52.060 30.917 C 52.008 31.054,51.894 31.167,51.808 31.167 C 51.722 31.167,51.450 31.354,51.203 31.583 C 50.956 31.812,50.659 32.000,50.543 32.000 C 50.428 32.000,50.333 32.075,50.333 32.167 C 50.333 32.258,50.221 32.333,50.083 32.333 C 49.946 32.333,49.833 32.403,49.833 32.489 C 49.833 32.574,49.678 32.694,49.488 32.754 C 49.287 32.817,49.179 32.958,49.229 33.090 C 49.286 33.236,49.231 33.284,49.075 33.224 C 48.942 33.173,48.833 33.200,48.833 33.285 C 48.833 33.449,49.641 33.478,49.917 33.322 C 50.008 33.270,50.233 33.233,50.417 33.239 C 50.600 33.245,50.803 33.176,50.868 33.085 C 50.943 32.979,51.061 32.994,51.193 33.126 C 51.458 33.391,52.333 33.397,52.333 33.133 C 52.333 32.978,52.378 32.978,52.533 33.133 C 52.748 33.348,53.571 33.416,53.442 33.208 C 53.305 32.987,70.602 33.165,74.833 33.429 C 75.246 33.455,75.996 33.490,76.500 33.508 C 77.318 33.536,73.960 33.937,70.250 34.254 C 69.608 34.309,68.970 34.386,68.831 34.426 C 68.692 34.465,68.231 34.538,67.806 34.588 C 67.382 34.638,66.858 34.716,66.642 34.762 C 66.426 34.807,65.875 34.881,65.417 34.926 C 64.958 34.971,64.188 35.087,63.704 35.183 C 63.221 35.280,62.583 35.388,62.288 35.424 C 61.805 35.483,60.546 35.695,60.333 35.753 C 60.205 35.788,59.033 35.996,57.833 36.196 C 57.237 36.296,56.668 36.442,56.568 36.521 C 56.468 36.599,56.355 36.633,56.318 36.596 C 56.280 36.558,55.875 36.601,55.417 36.691 C 54.958 36.781,54.396 36.889,54.167 36.932 C 53.073 37.133,49.926 37.859,49.795 37.940 C 49.714 37.990,49.483 38.053,49.282 38.079 C 48.590 38.170,46.416 38.684,46.010 38.853 C 45.786 38.946,45.298 39.084,44.926 39.159 C 43.694 39.409,42.086 39.864,41.938 40.003 C 41.858 40.079,41.677 40.096,41.536 40.042 C 41.394 39.988,41.321 40.012,41.373 40.097 C 41.425 40.181,41.232 40.267,40.944 40.288 C 40.261 40.338,39.501 40.657,39.497 40.895 C 39.496 40.999,39.422 40.971,39.333 40.833 C 39.244 40.696,39.171 40.669,39.169 40.774 C 39.168 40.879,39.050 41.009,38.908 41.064 C 38.747 41.125,38.692 41.095,38.761 40.981 C 38.839 40.857,38.763 40.859,38.520 40.989 C 38.326 41.093,38.167 41.142,38.167 41.098 C 38.167 40.951,37.121 41.379,36.820 41.650 C 36.261 42.154,36.014 42.333,35.882 42.334 C 35.768 42.334,35.426 42.589,34.549 43.330 C 34.438 43.424,34.232 43.500,34.090 43.500 C 33.949 43.500,33.833 43.561,33.833 43.635 C 33.833 43.792,32.393 44.833,32.176 44.833 C 32.094 44.833,32.003 44.890,31.972 44.958 C 31.906 45.108,30.382 46.283,30.108 46.396 C 29.977 46.450,29.996 46.531,30.167 46.651 C 30.380 46.802,30.371 46.829,30.106 46.831 C 29.845 46.833,29.813 46.920,29.903 47.375 C 29.962 47.673,30.012 48.048,30.015 48.208 C 30.018 48.369,30.091 48.500,30.177 48.500 C 30.263 48.500,30.324 48.556,30.314 48.625 C 30.303 48.694,30.312 48.806,30.334 48.875 C 30.393 49.056,30.455 49.313,30.479 49.474 C 30.542 49.895,37.962 60.048,40.709 63.471 C 42.592 65.818,42.806 66.076,43.833 67.245 C 44.246 67.715,45.333 68.988,46.250 70.074 C 49.720 74.186,50.371 74.888,55.659 80.223 C 62.310 86.934,62.476 87.068,61.958 85.295 C 61.817 84.812,61.360 83.254,60.943 81.833 C 59.596 77.244,58.690 73.421,57.407 66.917 C 56.770 63.684,55.797 58.146,55.859 58.101 C 56.362 57.740,66.395 54.396,71.500 52.889 C 78.789 50.736,84.883 49.221,90.833 48.082 C 94.939 47.295,94.857 47.370,99.057 40.546 C 102.514 34.927,104.342 31.682,108.754 23.333 C 111.278 18.558,111.384 17.211,109.387 15.310 C 108.415 14.385,108.100 14.265,105.250 13.737 C 104.278 13.558,101.139 12.972,100.417 12.836 C 99.958 12.749,99.280 12.637,98.910 12.586 C 98.540 12.536,98.082 12.465,97.894 12.428 C 97.705 12.392,97.145 12.314,96.650 12.255 C 96.155 12.196,95.638 12.117,95.500 12.079 C 95.362 12.041,94.837 11.968,94.333 11.916 C 93.829 11.864,93.192 11.789,92.917 11.749 C 92.402 11.675,92.153 11.647,89.167 11.334 C 88.204 11.234,87.229 11.122,87.000 11.085 C 86.143 10.950,83.881 10.773,82.875 10.761 C 82.302 10.755,81.834 10.698,81.834 10.635 C 81.833 10.572,81.683 10.532,81.500 10.546 C 81.317 10.560,81.167 10.628,81.167 10.697 M47.266 33.358 C 47.302 33.418,47.595 33.467,47.916 33.467 C 48.237 33.467,48.500 33.418,48.500 33.358 C 48.500 33.299,48.207 33.250,47.849 33.250 C 47.491 33.250,47.229 33.299,47.266 33.358 M35.417 41.938 C 34.981 42.151,34.971 42.171,35.333 42.094 C 35.563 42.045,35.844 42.004,35.958 42.002 C 36.073 42.001,36.167 41.925,36.167 41.833 C 36.167 41.619,36.030 41.638,35.417 41.938 M34.059 42.411 C 33.867 42.545,33.651 42.601,33.579 42.536 C 33.506 42.470,33.503 42.514,33.571 42.633 C 33.658 42.782,33.759 42.797,33.899 42.681 C 34.010 42.589,34.285 42.440,34.509 42.351 C 34.733 42.261,34.802 42.183,34.662 42.177 C 34.522 42.171,34.251 42.277,34.059 42.411 " stroke="none" fill="#1bc49c" fill-rule="evenodd"></path><path id="path1" d="M53.333 9.879 C 53.288 9.923,51.862 10.011,50.167 10.074 C 48.471 10.137,46.933 10.219,46.750 10.256 C 46.567 10.292,45.179 10.403,43.667 10.503 C 42.154 10.602,39.829 10.797,38.500 10.935 C 35.871 11.209,32.993 11.476,31.417 11.593 C 30.867 11.634,30.229 11.712,30.000 11.766 C 29.771 11.820,29.321 11.898,29.000 11.939 C 28.679 11.980,28.154 12.050,27.833 12.096 C 27.512 12.141,26.950 12.217,26.583 12.263 C 26.217 12.310,25.429 12.427,24.833 12.523 C 24.238 12.619,23.525 12.731,23.250 12.772 C 22.975 12.812,21.962 12.991,21.000 13.168 C 20.037 13.346,18.950 13.536,18.583 13.590 C 14.873 14.139,13.200 15.774,13.369 18.685 C 13.447 20.038,14.220 21.773,17.441 27.833 C 17.953 28.796,18.589 29.996,18.855 30.500 C 19.121 31.004,19.409 31.529,19.494 31.667 C 19.580 31.804,19.954 32.437,20.325 33.072 C 21.999 35.940,23.364 36.538,26.835 35.927 C 29.880 35.391,30.256 35.330,31.083 35.239 C 31.542 35.188,32.517 35.044,33.250 34.918 C 33.983 34.793,35.107 34.641,35.748 34.581 C 36.388 34.520,36.953 34.446,37.003 34.415 C 37.053 34.384,37.579 34.315,38.172 34.261 C 38.765 34.207,39.475 34.128,39.750 34.087 C 40.332 33.998,42.116 33.847,43.667 33.754 C 45.197 33.662,46.123 33.547,46.326 33.421 C 46.422 33.362,46.500 33.374,46.500 33.448 C 46.501 33.523,46.779 33.603,47.119 33.628 C 47.658 33.666,47.700 33.644,47.446 33.459 C 47.190 33.271,47.231 33.245,47.785 33.248 C 48.133 33.249,48.479 33.325,48.554 33.417 C 48.644 33.525,48.722 33.510,48.777 33.375 C 48.823 33.260,48.934 33.167,49.024 33.167 C 49.113 33.167,49.151 33.223,49.109 33.292 C 49.066 33.361,49.287 33.424,49.599 33.432 C 49.911 33.440,50.167 33.394,50.167 33.329 C 50.167 33.265,49.967 33.221,49.722 33.231 C 49.183 33.254,49.014 32.904,49.491 32.753 C 49.679 32.693,49.833 32.574,49.833 32.489 C 49.833 32.403,49.946 32.333,50.083 32.333 C 50.221 32.333,50.333 32.258,50.333 32.167 C 50.333 32.075,50.428 32.000,50.543 32.000 C 50.659 32.000,50.956 31.813,51.203 31.583 C 51.450 31.354,51.722 31.167,51.808 31.167 C 51.894 31.167,52.008 31.054,52.060 30.917 C 52.113 30.779,52.263 30.667,52.394 30.667 C 52.524 30.667,52.674 30.554,52.727 30.417 C 52.780 30.279,52.907 30.167,53.010 30.167 C 53.113 30.167,53.959 29.621,54.890 28.954 C 55.821 28.287,56.996 27.484,57.500 27.168 C 58.004 26.852,58.454 26.551,58.500 26.497 C 58.546 26.444,58.846 26.220,59.167 26.000 C 59.487 25.780,59.788 25.555,59.833 25.501 C 59.879 25.447,60.273 25.181,60.708 24.909 C 61.143 24.638,61.500 24.360,61.500 24.292 C 61.500 24.223,61.583 24.167,61.684 24.167 C 61.846 24.167,62.385 23.785,63.157 23.122 C 63.289 23.009,63.484 22.879,63.591 22.833 C 63.698 22.787,64.078 22.504,64.435 22.204 C 65.266 21.505,67.634 19.833,67.794 19.833 C 67.900 19.833,68.251 19.569,69.118 18.837 C 69.229 18.743,69.394 18.667,69.485 18.667 C 69.576 18.667,69.710 18.564,69.783 18.439 C 69.857 18.314,70.160 18.087,70.458 17.935 C 70.756 17.783,71.000 17.594,71.000 17.515 C 71.000 17.437,71.131 17.328,71.292 17.274 C 71.674 17.146,72.209 16.799,73.083 16.113 C 73.567 15.733,75.919 14.089,76.464 13.750 C 76.867 13.499,77.034 13.378,77.607 12.919 C 77.896 12.689,78.180 12.500,78.239 12.500 C 78.299 12.500,78.438 12.421,78.549 12.325 C 79.370 11.611,80.787 10.682,80.958 10.746 C 81.073 10.788,81.167 10.750,81.167 10.661 C 81.167 10.426,80.106 10.464,79.842 10.708 C 79.663 10.875,79.641 10.875,79.735 10.708 C 79.817 10.564,79.708 10.495,79.385 10.485 C 79.127 10.476,78.654 10.443,78.333 10.410 C 78.012 10.378,77.225 10.307,76.583 10.253 C 75.942 10.200,75.004 10.119,74.500 10.073 C 73.258 9.960,53.438 9.779,53.333 9.879 M50.833 33.161 C 50.833 33.250,50.721 33.280,50.583 33.227 C 50.446 33.174,50.333 33.214,50.333 33.316 C 50.333 33.547,50.778 33.558,50.918 33.331 C 50.976 33.237,51.104 33.212,51.204 33.273 C 51.312 33.340,51.337 33.307,51.266 33.192 C 51.121 32.959,50.833 32.938,50.833 33.161 M53.442 33.208 C 53.485 33.277,53.661 33.333,53.833 33.333 C 54.006 33.333,54.182 33.277,54.224 33.208 C 54.267 33.140,54.091 33.083,53.833 33.083 C 53.576 33.083,53.400 33.140,53.442 33.208 M36.533 41.700 C 36.423 41.810,36.332 41.829,36.331 41.742 C 36.329 41.655,36.270 41.675,36.199 41.786 C 36.128 41.898,35.811 42.010,35.494 42.036 C 35.176 42.062,34.872 42.143,34.818 42.217 C 34.764 42.290,34.520 42.372,34.276 42.398 C 34.032 42.424,33.777 42.507,33.708 42.583 C 33.639 42.658,33.689 42.659,33.817 42.584 C 33.967 42.497,34.012 42.512,33.942 42.625 C 33.882 42.722,33.697 42.766,33.531 42.723 C 33.171 42.629,31.175 43.776,31.040 44.154 C 30.989 44.299,30.811 44.548,30.646 44.710 C 30.480 44.871,30.388 45.114,30.440 45.251 C 30.493 45.388,30.461 45.500,30.371 45.500 C 30.280 45.500,30.170 45.688,30.126 45.917 C 30.082 46.146,30.099 46.333,30.162 46.333 C 30.309 46.333,31.897 45.127,31.972 44.958 C 32.003 44.890,32.094 44.833,32.176 44.833 C 32.393 44.833,33.833 43.792,33.833 43.635 C 33.833 43.561,33.949 43.500,34.090 43.500 C 34.232 43.500,34.438 43.424,34.549 43.330 C 35.426 42.589,35.768 42.334,35.882 42.334 C 35.955 42.333,36.105 42.256,36.215 42.161 C 36.326 42.066,36.567 41.881,36.750 41.750 C 36.933 41.618,37.005 41.508,36.908 41.505 C 36.812 41.502,36.643 41.590,36.533 41.700 " stroke="none" fill="#26dfa4" fill-rule="evenodd"></path><path id="path2" d="M128.049 30.500 C 128.214 32.462,129.644 34.638,131.336 35.502 C 132.883 36.291,133.256 36.330,139.292 36.332 L 145.000 36.333 145.000 51.497 L 145.000 66.660 145.375 66.752 C 145.581 66.802,147.737 66.823,150.167 66.797 L 154.583 66.750 154.626 51.542 L 154.668 36.333 163.274 36.333 L 171.880 36.333 171.787 35.458 C 171.471 32.491,169.076 29.988,166.083 29.499 C 165.472 29.399,157.864 29.335,146.517 29.334 L 127.952 29.333 128.049 30.500 M188.333 44.822 C 188.333 56.135,188.385 60.438,188.525 60.781 C 188.631 61.039,188.746 61.400,188.780 61.583 C 188.815 61.767,188.916 61.942,189.006 61.973 C 189.095 62.003,189.126 62.097,189.075 62.181 C 189.023 62.265,189.052 62.333,189.139 62.333 C 189.226 62.333,189.345 62.525,189.404 62.758 C 189.563 63.390,191.441 65.175,192.583 65.779 C 194.581 66.835,194.771 66.846,209.750 66.795 L 223.250 66.750 223.230 65.667 C 223.219 65.071,223.120 64.358,223.010 64.083 C 222.900 63.808,222.810 63.546,222.809 63.500 C 222.809 63.355,222.106 62.263,221.797 61.927 C 221.634 61.749,221.500 61.545,221.500 61.474 C 221.500 61.270,219.791 60.059,218.981 59.689 C 217.522 59.022,217.171 59.002,207.205 59.001 L 197.494 59.000 197.539 54.958 L 197.583 50.917 203.667 50.833 L 209.750 50.750 210.667 50.317 C 212.792 49.312,214.667 46.516,214.667 44.352 L 214.667 44.003 206.125 43.960 L 197.583 43.917 197.583 40.167 L 197.583 36.417 208.542 36.374 C 215.799 36.345,219.500 36.274,219.500 36.162 C 219.500 36.069,219.296 35.676,219.047 35.288 C 218.798 34.901,218.442 34.311,218.256 33.979 C 218.069 33.647,217.392 32.466,216.750 31.354 L 215.583 29.334 201.958 29.334 L 188.333 29.333 188.333 44.822 M217.500 29.424 C 217.500 29.573,218.572 31.509,219.296 32.667 C 220.243 34.181,223.085 39.137,223.971 40.819 C 224.378 41.590,225.338 43.263,226.105 44.536 C 226.872 45.809,227.500 46.880,227.500 46.915 C 227.500 46.950,228.260 48.278,229.189 49.865 C 230.118 51.452,231.067 53.087,231.299 53.500 C 231.530 53.913,232.355 55.300,233.132 56.583 C 233.909 57.867,234.846 59.517,235.214 60.250 C 235.583 60.983,235.948 61.608,236.026 61.639 C 236.103 61.669,236.167 61.771,236.167 61.864 C 236.167 61.957,236.598 62.780,237.125 63.692 C 237.652 64.605,238.174 65.516,238.285 65.717 C 238.935 66.898,238.689 66.833,242.522 66.833 L 245.997 66.833 246.337 66.292 C 246.598 65.877,249.569 60.694,251.903 56.583 C 252.007 56.400,252.277 55.947,252.504 55.577 C 252.731 55.207,253.006 54.757,253.115 54.577 C 253.416 54.082,255.590 50.332,255.962 49.667 C 256.619 48.491,257.523 46.910,257.678 46.667 C 257.765 46.529,258.079 45.954,258.376 45.389 C 259.117 43.981,262.893 37.474,265.986 32.275 C 267.937 28.995,268.075 29.270,264.536 29.385 C 260.584 29.513,258.967 30.000,256.752 31.731 C 255.631 32.606,254.006 34.407,254.002 34.778 C 254.001 34.885,253.939 34.997,253.865 35.028 C 253.748 35.076,251.849 38.488,249.661 42.583 C 249.269 43.317,248.683 44.404,248.359 45.000 C 248.035 45.596,247.538 46.533,247.255 47.083 C 246.134 49.262,242.590 55.667,242.506 55.664 C 242.457 55.663,242.004 54.894,241.500 53.956 C 239.384 50.016,238.931 49.185,238.210 47.917 C 237.794 47.183,237.339 46.358,237.200 46.083 C 237.061 45.808,236.815 45.392,236.653 45.159 C 236.492 44.926,235.745 43.501,234.994 41.992 C 234.242 40.484,233.562 39.225,233.481 39.194 C 233.400 39.164,233.332 39.051,233.331 38.944 C 233.329 38.837,232.654 37.550,231.830 36.083 C 231.006 34.617,229.839 32.498,229.237 31.375 L 228.142 29.333 222.821 29.333 C 219.894 29.333,217.500 29.374,217.500 29.424 M269.012 30.377 C 268.698 30.949,268.030 32.092,267.528 32.917 C 267.025 33.742,266.477 34.675,266.309 34.990 C 266.141 35.305,265.928 35.639,265.835 35.731 C 265.544 36.023,265.617 58.654,265.914 60.056 C 266.540 63.010,268.480 65.228,271.381 66.304 L 272.583 66.750 286.667 66.750 L 300.750 66.750 300.724 65.667 C 300.658 62.940,298.420 60.229,295.479 59.314 C 294.540 59.022,293.802 59.000,284.735 59.000 L 275.000 59.000 275.000 54.926 L 275.000 50.852 281.125 50.801 L 287.250 50.750 288.209 50.301 C 290.262 49.339,291.934 47.079,292.121 45.014 L 292.213 44.000 283.606 44.000 L 275.000 44.000 275.000 40.167 L 275.000 36.333 285.016 36.333 C 296.186 36.333,295.982 36.352,297.778 35.188 C 299.544 34.044,300.599 32.355,300.784 30.380 L 300.882 29.333 285.232 29.335 L 269.583 29.337 269.012 30.377 M302.667 47.984 C 302.667 60.723,302.722 66.681,302.840 66.754 C 303.102 66.916,305.322 66.505,306.116 66.148 C 306.500 65.975,306.861 65.833,306.917 65.833 C 308.085 65.833,310.779 62.690,311.596 60.374 L 311.993 59.250 311.996 47.792 L 312.000 36.333 321.292 36.343 C 331.545 36.353,331.127 36.313,332.695 37.432 C 335.594 39.501,335.146 44.111,331.899 45.619 C 330.823 46.119,331.329 46.087,322.667 46.210 C 317.708 46.281,315.081 48.217,314.721 52.067 L 314.618 53.167 317.027 53.167 C 318.698 53.167,319.520 53.230,319.708 53.375 C 319.858 53.490,320.632 54.183,321.428 54.917 C 322.225 55.650,323.973 57.255,325.313 58.483 C 326.653 59.711,328.387 61.328,329.167 62.076 C 330.409 63.268,330.923 63.671,332.419 64.628 C 333.611 65.389,336.109 66.282,337.917 66.592 C 339.726 66.902,347.167 66.873,347.161 66.556 C 347.159 66.388,346.952 66.103,346.703 65.923 C 346.123 65.504,341.658 61.824,340.646 60.930 C 340.223 60.556,339.646 60.063,339.365 59.833 C 339.084 59.604,338.634 59.229,338.365 59.000 C 338.096 58.771,337.680 58.433,337.442 58.250 C 337.203 58.067,336.763 57.701,336.462 57.438 C 336.162 57.175,335.723 56.837,335.486 56.688 C 335.249 56.539,334.186 55.704,333.124 54.833 L 331.193 53.250 332.895 53.150 C 344.713 52.457,348.149 36.038,337.583 30.748 C 334.773 29.341,336.069 29.434,318.375 29.374 L 302.667 29.321 302.667 47.984 M340.067 29.587 C 340.087 29.726,341.037 30.832,342.177 32.045 C 343.317 33.257,344.811 34.849,345.496 35.583 C 346.182 36.316,346.785 36.954,346.836 37.000 C 346.887 37.046,347.448 37.646,348.081 38.333 C 348.714 39.021,350.181 40.596,351.340 41.833 C 352.500 43.071,354.735 45.461,356.307 47.146 L 359.167 50.208 359.167 58.521 C 359.167 65.568,359.202 66.833,359.402 66.833 C 359.946 66.833,362.243 66.324,362.398 66.169 C 362.491 66.076,362.683 66.000,362.825 65.999 C 363.559 65.997,365.733 64.087,366.699 62.595 C 367.889 60.757,368.000 60.094,368.000 54.821 L 368.000 50.177 369.468 48.630 C 370.275 47.779,371.427 46.558,372.027 45.917 C 372.628 45.275,373.599 44.260,374.185 43.661 C 374.771 43.062,375.850 41.901,376.583 41.081 C 378.008 39.489,382.668 34.516,384.070 33.092 C 388.141 28.957,388.215 29.274,383.208 29.376 C 378.432 29.473,377.940 29.588,375.392 31.219 C 374.453 31.819,366.495 40.046,364.882 42.083 C 363.585 43.722,364.244 44.086,359.750 39.250 C 358.558 37.968,356.654 35.966,355.519 34.801 C 354.384 33.636,353.296 32.477,353.102 32.225 C 352.909 31.973,352.461 31.463,352.109 31.092 C 351.756 30.720,351.278 30.173,351.047 29.875 L 350.627 29.333 345.328 29.333 C 340.680 29.333,340.034 29.364,340.067 29.587 M162.836 44.201 C 162.866 46.445,164.588 49.200,166.561 50.164 C 168.018 50.875,169.233 50.993,175.149 50.997 L 180.382 51.000 180.285 49.851 C 180.098 47.617,178.854 45.834,176.726 44.750 L 175.417 44.083 169.125 44.034 C 164.060 43.995,162.834 44.027,162.836 44.201 M175.891 74.164 C 168.284 76.158,165.225 86.341,170.243 92.964 C 173.462 97.213,179.430 98.401,183.964 95.697 C 185.660 94.686,187.224 93.016,188.017 91.372 C 192.567 81.930,185.348 71.685,175.891 74.164 M146.722 74.152 C 146.064 74.206,145.490 74.287,145.445 74.333 C 145.400 74.379,145.438 76.779,145.530 79.667 C 145.647 83.343,145.643 86.091,145.515 88.833 C 145.415 90.987,145.333 93.558,145.333 94.547 L 145.333 96.343 147.458 96.297 L 149.583 96.250 149.559 88.615 C 149.531 79.702,149.261 80.278,151.808 83.814 C 152.693 85.042,154.071 86.918,154.870 87.982 C 155.669 89.046,156.907 90.697,157.620 91.650 C 158.333 92.604,159.444 94.066,160.088 94.900 L 161.259 96.417 163.088 96.417 L 164.917 96.417 165.018 88.833 C 165.074 84.662,165.179 79.656,165.252 77.708 L 165.383 74.167 163.181 74.167 L 160.978 74.167 161.092 81.875 C 161.192 88.701,161.177 89.555,160.957 89.333 C 160.583 88.956,153.229 79.143,152.083 77.492 C 149.368 73.579,149.872 73.893,146.722 74.152 M190.849 74.540 C 190.721 74.875,190.418 76.283,190.208 77.526 C 190.111 78.102,190.123 78.104,193.480 77.986 C 195.004 77.932,196.306 77.918,196.375 77.954 C 196.563 78.053,196.525 87.467,196.319 92.109 C 196.101 96.993,195.899 96.583,198.528 96.583 L 200.583 96.583 200.583 87.306 C 200.583 82.203,200.621 77.994,200.667 77.952 C 200.713 77.910,201.987 77.933,203.500 78.003 C 206.861 78.158,206.671 78.284,206.527 76.000 L 206.417 74.250 204.583 74.333 C 201.858 74.457,194.131 74.428,192.455 74.287 C 191.039 74.168,190.990 74.176,190.849 74.540 M226.833 74.523 C 225.504 74.599,222.504 74.643,220.167 74.622 L 215.917 74.583 215.923 77.000 C 215.926 78.329,215.949 81.191,215.973 83.359 C 215.997 85.527,215.964 89.408,215.899 91.984 C 215.830 94.752,215.843 96.670,215.933 96.674 C 218.249 96.782,220.190 96.763,220.271 96.633 C 220.327 96.543,220.360 94.457,220.344 91.998 L 220.316 87.528 220.695 87.408 C 220.903 87.342,223.101 87.317,225.578 87.352 L 230.083 87.417 230.083 85.417 L 230.083 83.417 228.417 83.417 C 227.500 83.417,225.325 83.454,223.583 83.500 L 220.417 83.583 220.417 80.917 L 220.417 78.250 225.815 78.298 L 231.213 78.346 231.093 76.548 C 231.026 75.560,230.894 74.657,230.799 74.542 C 230.613 74.317,230.483 74.317,226.833 74.523 M208.222 74.763 C 208.166 74.908,208.210 77.476,208.319 80.471 C 208.463 84.414,208.470 86.837,208.345 89.250 C 208.140 93.178,208.116 96.663,208.292 96.676 C 209.691 96.775,212.384 96.717,212.478 96.586 C 212.545 96.493,212.541 93.979,212.470 91.000 C 212.395 87.860,212.409 83.762,212.503 81.250 C 212.592 78.867,212.666 76.373,212.666 75.708 L 212.667 74.500 210.495 74.500 C 208.670 74.500,208.307 74.542,208.222 74.763 M231.944 74.611 C 231.608 74.948,231.834 81.115,232.208 81.808 C 232.719 82.753,236.471 88.066,237.294 89.009 C 237.409 89.142,237.736 89.550,238.020 89.917 L 238.535 90.583 238.476 93.667 L 238.417 96.750 240.750 96.750 L 243.083 96.750 243.028 93.750 L 242.972 90.750 243.675 89.917 C 245.296 87.994,246.833 85.893,248.554 83.250 C 249.912 81.164,249.848 81.446,249.796 77.833 L 249.750 74.583 247.610 74.568 C 245.049 74.549,245.254 74.259,245.484 77.572 L 245.663 80.162 245.037 81.122 C 244.308 82.243,242.359 84.754,241.457 85.735 L 240.831 86.417 240.396 85.917 C 240.156 85.642,239.763 85.191,239.522 84.915 C 238.676 83.948,237.220 82.075,236.608 81.167 L 235.991 80.250 236.104 77.375 L 236.217 74.500 234.136 74.500 C 232.992 74.500,232.006 74.550,231.944 74.611 M180.885 78.336 C 185.692 80.134,186.932 87.202,183.103 90.975 C 178.765 95.249,172.319 92.313,172.035 85.933 C 171.786 80.334,176.170 76.572,180.885 78.336 " stroke="none" fill="#242424" fill-rule="evenodd"></path><path id="path3" d="" stroke="none" fill="#205468" fill-rule="evenodd"></path><path id="path4" d="M197.571 40.167 C 197.571 42.229,197.595 43.073,197.624 42.042 C 197.654 41.010,197.654 39.323,197.624 38.292 C 197.595 37.260,197.571 38.104,197.571 40.167 M197.572 55.000 C 197.572 57.246,197.596 58.165,197.625 57.042 C 197.653 55.919,197.653 54.081,197.625 52.958 C 197.596 51.835,197.572 52.754,197.572 55.000 " stroke="none" fill="#205824" fill-rule="evenodd"></path></g></svg>